<svg id="Capa_1" enable-background="new 0 0 512 512" height="512" viewBox="0 0 512 512" width="512" xmlns="http://www.w3.org/2000/svg"><g><path d="m512 256c0 141.38-114.62 256-256 256-34.24 0-66.92-6.73-96.77-18.92-4.262-11.408-11.182-11.464-21.452-17.474-1.14-.66-12.928.284-14.058-.396 0 0-.01 0-.01-.01-3.34-2.01-6.62-4.1-9.86-6.27-3.038-2.033-4.175-15.827-7.121-17.984-2.591-1.897-7.001 7.857-9.519 5.864-6.17-4.88-12.1-10.04-17.79-15.47-2.589-2.46 1.638-9.327-.846-11.898-1.373-1.421-9.492 1.491-10.834.038-5.22-5.67-10.2-11.57-14.9-17.7-2.585-3.367 2.657-5.444.239-8.942-1.445-2.091-10.605-5.562-11.989-7.698-2.4-3.7-4.71-7.47-6.92-11.3-3.59-6.2-1.834-23.437-4.894-29.957-2.58-5.49-10.066-.213-12.256-5.913-10.99-28.54-17.02-59.55-17.02-91.97 0-141.38 114.62-256 256-256s256 114.62 256 256z" fill="#80b4fb"/><path d="m400.14 56.049v24.53h-289.31v-24.53c0-2.47.21-4.89.62-7.24 3.43-19.92 20.79-35.07 41.69-35.07h204.69c20.9 0 38.26 15.15 41.69 35.07.41 2.35.62 4.77.62 7.24z" fill="#ffd064"/><path d="m217.98 13.738c-23.36 0-42.3 18.94-42.3 42.31v24.53h-64.85v-24.53c0-23.37 18.94-42.31 42.31-42.31z" fill="#ffc250"/><g><path d="m509.101 262.5c0 6.506-2.646 12.41-6.915 16.679s-10.174 6.914-16.679 6.914h-459.015c-13.037 0-23.594-10.57-23.594-23.594 0-6.505 2.646-12.41 6.914-16.679 4.269-4.269 10.161-6.902 16.679-6.902h459.015c13.025.002 23.595 10.559 23.595 23.582z" fill="#ffd064"/><path d="m75.61 286.094h-49.118c-13.037 0-23.594-10.57-23.594-23.594 0-6.505 2.646-12.41 6.914-16.679 4.269-4.269 10.161-6.902 16.679-6.902h49.119c-6.518 0-12.423 2.633-16.692 6.902s-6.902 10.174-6.902 16.679c0 13.037 10.557 23.594 23.594 23.594z" fill="#ffc250"/></g><path d="m443.8 88.05v147.26c0 95.72-77.6 173.33-173.32 173.33h-28.96c-95.72 0-173.32-77.61-173.32-173.33v-147.26z" fill="#687780"/><path d="m300.378 406.067c-9.714 1.699-19.699 2.575-29.893 2.575h-28.955c-95.725 0-173.334-77.609-173.334-173.334v-147.256h88.741v147.256c0 85.531 61.954 156.605 143.441 170.759z" fill="#546066"/><path d="m192.574 384.721h122.475v37.434h-122.475z" fill="#545058"/><path d="m289.827 121.993h-67.655c-17.231 0-31.199 13.968-31.199 31.199v248.28h130.052v-248.28c.001-17.231-13.967-31.199-31.198-31.199z" fill="#546066"/><path d="m211.82 270.394v-113.887c0-7.549 6.119-13.668 13.668-13.668h61.024c7.549 0 13.668 6.119 13.668 13.668v113.888c0 11.073-8.976 20.049-20.049 20.049h-48.262c-11.073 0-20.049-8.977-20.049-20.05z" fill="#3e3b41"/><g><g><g fill="#8b5e5e"><path d="m113.85 319.8v149.13c-5.71-3.82-11.26-7.86-16.64-12.12v-137.01z"/><path d="m170.57 350.19-44.95 44.95-11.77 11.77-4.87 4.87-11.77 11.77-17.79 17.79c-4.02-3.82-7.91-7.78-11.68-11.86l17.7-17.7 11.77-11.77 4.87-4.87 11.77-11.77 44.95-44.95z"/><path d="m189.19 395.14v16.64h-136.35c-4.13-5.38-8.05-10.93-11.75-16.64z"/><path d="m97.211 319.803h16.639v167.316h-16.639z" transform="matrix(-.707 .707 -.707 -.707 465.442 614.13)"/></g><path d="m105.53 299.01c-37.3 0-70.04 19.55-88.51 48.96 4.8 12.46 10.54 24.44 17.15 35.87 8.58-31.35 37.27-54.39 71.36-54.39 40.87 0 74 33.14 74 74.01 0 34.59-23.73 63.65-55.81 71.75 11.29 6.84 23.16 12.82 35.51 17.87 30.41-18.26 50.76-51.57 50.76-89.62 0-57.69-46.77-104.45-104.46-104.45z" fill="#9d6b6b"/><g fill="#8b5e5e"><path d="m195.25 403.46c0 38.89-30.01 70.78-68.13 73.77-1.14-.66-2.27-1.34-3.4-2.02 0 0-.01 0-.01-.01 32.08-8.1 55.82-37.14 55.82-71.74 0-38.22-28.97-69.66-66.15-73.59 2.59-.27 5.21-.42 7.86-.42 40.87 0 74.01 33.14 74.01 74.01z"/><path d="m113.38 299.3c-40.6 3.02-74.73 29.24-89.19 65.45-2.58-5.49-4.98-11.08-7.17-16.78 18.47-29.41 51.21-48.96 88.51-48.96 2.64 0 5.26.1 7.85.29z"/></g><circle cx="105.531" cy="403.461" fill="#9d6b6b" r="31.43"/><path d="m112.101 434.206c-2.122.445-4.318.686-6.57.686-17.355 0-31.43-14.075-31.43-31.43s14.075-31.43 31.43-31.43c2.252 0 4.448.241 6.57.686-14.205 3.021-24.87 15.641-24.87 30.745 0 15.101 10.665 27.722 24.87 30.743z" fill="#8b5e5e"/><circle cx="105.531" cy="403.461" fill="#545058" r="11.094"/></g><g><g fill="#8b5e5e"><path d="m398.15 319.803h16.639v167.316h-16.639z"/><path d="m398.15 319.803h16.639v167.316h-16.639z" transform="matrix(.707 .707 -.707 .707 404.342 -169.246)"/><path d="m398.15 319.803h16.639v167.316h-16.639z" transform="matrix(0 1 -1 0 809.93 -3.008)"/><path d="m398.15 319.803h16.639v167.316h-16.639z" transform="matrix(-.707 .707 -.707 -.707 979.176 401.334)"/></g><path d="m406.464 299.005c-57.69 0-104.456 46.765-104.456 104.456 0 57.69 46.766 104.456 104.456 104.456s104.465-46.766 104.465-104.456c.001-57.69-46.774-104.456-104.465-104.456zm0 178.464c-40.872 0-73.998-33.135-73.998-74.007s33.126-74.008 73.998-74.008 74.008 33.135 74.008 74.008c0 40.871-33.135 74.007-74.008 74.007z" fill="#9d6b6b"/><g fill="#8b5e5e"><path d="m414.322 477.05c2.582.273 5.203.419 7.857.419 40.872 0 74.008-33.135 74.008-74.007s-33.135-74.008-74.008-74.008c-2.655 0-5.275.146-7.857.419 37.178 3.925 66.15 35.371 66.15 73.589 0 38.217-28.972 69.663-66.15 73.588z"/><path d="m317.724 403.461c0-55.047 42.579-100.145 96.598-104.162-2.594-.193-5.214-.293-7.858-.293-57.69 0-104.456 46.765-104.456 104.456 0 57.69 46.766 104.456 104.456 104.456 2.643 0 5.263-.1 7.858-.293-54.02-4.019-96.598-49.117-96.598-104.164z"/></g><circle cx="406.469" cy="403.461" fill="#9d6b6b" r="31.43"/><path d="m413.039 434.206c-2.122.445-4.318.686-6.57.686-17.355 0-31.43-14.075-31.43-31.43s14.075-31.43 31.43-31.43c2.252 0 4.448.241 6.57.686-14.205 3.021-24.87 15.641-24.87 30.745.001 15.101 10.666 27.722 24.87 30.743z" fill="#8b5e5e"/><circle cx="406.469" cy="403.461" fill="#545058" r="11.094"/></g></g><path d="m400.14 56.049v24.53h-289.31v-24.53c0-2.47.21-4.89.62-7.24h288.07c.41 2.35.62 4.77.62 7.24z" fill="#ffc250"/><path d="m443.8 88.05v26.85c-.21.01-.42.01-.63.01h-374.34c-.21 0-.42 0-.63-.01v-26.85z" fill="#546066"/><path d="m443.168 101.247h-374.336c-10.624 0-19.237-8.613-19.237-19.237 0-10.624 8.613-19.237 19.237-19.237h374.335c10.624 0 19.237 8.613 19.237 19.237 0 10.625-8.612 19.237-19.236 19.237z" fill="#ffd064"/><path d="m161.726 101.252h-92.889c-10.632 0-19.241-8.61-19.241-19.241 0-5.305 2.147-10.121 5.628-13.602s8.297-5.628 13.612-5.628h92.889c-5.316 0-10.131 2.147-13.612 5.628s-5.628 8.297-5.628 13.602c0 10.631 8.61 19.241 19.241 19.241z" fill="#ffc250"/><g fill="#3e3b41"><path d="m373.59 283.012h-3.507c-10.271 0-18.597-8.326-18.597-18.597v-104.609c0-10.271 8.326-18.597 18.597-18.597h31.478c10.271 0 18.597 8.326 18.597 18.597v76.637c0 25.72-20.849 46.569-46.568 46.569z"/><path d="m138.41 283.012h3.507c10.271 0 18.597-8.326 18.597-18.597v-104.609c0-10.271-8.326-18.597-18.597-18.597h-31.478c-10.271 0-18.597 8.326-18.597 18.597v76.637c0 25.72 20.849 46.569 46.568 46.569z"/></g></g></svg>