<svg id="Capa_1" enable-background="new 0 0 512 512" height="512" viewBox="0 0 512 512" width="512" xmlns="http://www.w3.org/2000/svg"><g><path d="m512 256c0 109.65-68.95 203.21-165.86 239.67-28.04 10.56-58.41-25.921-90.14-25.921-37.09 0-55.689 7.549-87.509-6.651-23.02-10.26-60.871 2.992-79.701-13.258-54.38-46.94-88.79-116.37-88.79-193.84 0-141.38 114.62-256 256-256s256 114.62 256 256z" fill="#ffd064"/><g><path d="m366.13 109.555c36.332 0 65.891-29.558 65.891-65.891 0-12.21-3.347-23.923-9.443-34.03-7.551-12.518-25.559-12.915-33.604-.709-4.231 6.419-4.655 14.767-.678 21.346 2.405 3.978 3.725 8.588 3.725 13.392 0 14.276-11.614 25.891-25.891 25.891z" fill="#f9f6f9"/><path d="m404.554 30.266c2.4 3.98 3.72 8.59 3.72 13.4 0 14.27-11.61 25.89-25.89 25.89l-13.75-.12c13.11-1.26 23.39-12.34 23.39-25.77 0-4.81-1.32-9.42-3.72-13.4-1.86-3.07-2.76-6.52-2.76-9.99 0-3.96 1.17-7.93 3.43-11.35 5.67-8.6 16.27-10.94 24.69-7.2-3.28 1.46-6.23 3.86-8.43 7.2-2.26 3.43-3.43 7.4-3.43 11.36 0 3.47.89 6.92 2.75 9.98z" fill="#dddaec"/><path d="m408.008 369.032c-13.223 0-23.943-10.72-23.943-23.943v-99.231h47.886v99.231c0 13.223-10.719 23.943-23.943 23.943z" fill="#dd636e"/><path d="m346.14 495.67c-28.04 10.56-58.41 16.33-90.14 16.33-63.91 0-122.35-23.43-167.21-62.16 20.07-34.82 57.67-58.26 100.75-58.26h41.02c60.09 0 109.53 45.61 115.58 104.09z" fill="#687780"/><path d="m248.62 392.98c-49.78 7.76-89.09 47.13-96.77 96.93-23.02-10.26-44.23-23.82-63.06-40.07 20.06-34.82 57.67-58.26 100.74-58.26h41.03c6.14 0 12.17.48 18.06 1.4z" fill="#546066"/><circle cx="91.54" cy="255.138" fill="#edbb9c" r="51.012"/><path d="m68.784 255.134c0 6.534 2.749 12.428 7.165 16.57.603-5.564 5.319-9.895 11.044-9.895 6.129 0 11.1 4.971 11.1 11.11 0 1.506-.301 2.947-.847 4.265 9.81-2.542 17.05-11.449 17.05-22.05 0-12.569-10.187-22.756-22.756-22.756s-22.756 10.187-22.756 22.756z" fill="#dea080"/><path d="m166.703 343.093v65.022c0 23.941 19.4 43.341 43.341 43.341 23.94 0 43.351-19.4 43.351-43.341v-65.022z" fill="#f2d1bc"/><path d="m223.513 449.314c-4.24 1.39-8.77 2.14-13.47 2.14-23.94 0-43.34-19.4-43.34-43.34v-65.02h26.93v65.02c0 19.24 12.53 35.55 29.88 41.2z" fill="#edbb9c"/><path d="m166.703 343.093v57.646c12.231 3.161 25.07 4.845 38.29 4.845h48.402v-62.491z" fill="#edbb9c"/><path d="m207.852 111.053h89.294c74.451 0 134.805 60.354 134.805 134.805 0 74.451-60.354 134.805-134.805 134.805h-89.294c-74.451 0-99.55-60.354-99.55-134.805-.001-74.451 25.099-134.805 99.55-134.805z" fill="#f2d1bc"/><path d="m199.894 341.176c24.399 24.39 58.098 39.481 95.331 39.481h-87.521c-37.224 0-70.922-15.091-95.321-39.481-24.39-24.4-4.081-58.098-4.081-95.321 0-74.447 24.955-134.802 99.402-134.802h87.521c-74.457 0-134.812 60.355-134.812 134.802 0 37.224 15.091 70.922 39.481 95.321z" fill="#edbb9c"/><path d="m302.746 217.736c0 11.744 3.912 22.575 10.515 31.247 4.301-5.67 9.749-10.422 15.998-13.912 7.44-4.155 6.107-18.837 15.239-18.837 3.895 0 17.6 12.746 21.248 13.562 12.089 2.705 22.575 9.645 29.82 19.187 6.604-8.672 10.515-19.503 10.515-31.247 0-28.537-23.135-51.672-51.672-51.672s-51.663 23.135-51.663 51.672z" fill="#f9f6f9"/><path d="m321.708 217.736c0 6.847 2.909 13.008 7.552 17.335 7.444-4.155 16.016-6.522 25.149-6.522 3.893 0 7.688.434 11.337 1.247 2.096-3.532 3.297-7.651 3.297-12.06 0-13.072-10.596-23.668-23.668-23.668-13.071 0-23.667 10.596-23.667 23.668z" fill="#545058"/><path d="m160.949 217.734c0 11.741 3.914 22.57 10.517 31.246 5.71-7.506 13.421-13.403 22.338-16.896 5.835-2.278 12.179-23.582 18.818-23.582s12.983 21.304 18.818 23.582c8.917 3.494 16.628 9.391 22.338 16.896 6.603-8.676 10.517-19.506 10.517-31.246 0-28.53-23.133-51.663-51.672-51.663s-51.674 23.132-51.674 51.663z" fill="#f9f6f9"/><path d="m188.952 217.734c0 5.397 1.805 10.374 4.852 14.35 5.835-2.278 12.179-3.529 18.818-3.529s12.983 1.251 18.818 3.529c3.047-3.976 4.852-8.953 4.852-14.35 0-13.072-10.597-23.66-23.669-23.66s-23.671 10.587-23.671 23.66z" fill="#545058"/><path d="m320.307 42.044h-131.235c-54.265 0-98.255 43.99-98.255 98.255v9.488h327.745v-9.488c0-54.265-43.99-98.255-98.255-98.255z" fill="#9d6b6b"/><path d="m271.827 42.039c-54.27 0-98.26 43.99-98.26 98.26v9.49h-82.75v-9.49c0-54.27 43.99-98.26 98.26-98.26z" fill="#8b5e5e"/><path d="m285.671 25.881h-18.873c-11.685 0-21.157 9.472-21.157 21.157v108.07h61.188v-108.07c-.001-11.685-9.473-21.157-21.158-21.157z" fill="#d6d6d6"/><path d="m287.381 25.958c-10.89.86-19.45 9.97-19.45 21.08v108.07h-22.29v-108.07c0-11.68 9.47-21.16 21.16-21.16h18.87c.58 0 1.15.02 1.71.08z" fill="#c2c2c2"/><path d="m141.888 216.656v-52.237h-47.886v170.261c0 13.223 10.72 23.943 23.943 23.943 2.696 0 5.284-.452 7.702-1.273v6.54c0 13.223 10.719 23.943 23.943 23.943 7.339 0 13.903-3.305 18.295-8.505 2.806 10.105 12.067 17.524 23.066 17.524 7.572 0 14.318-3.518 18.705-9.005 2.353 10.752 11.926 18.803 23.384 18.803 7.427 0 14.064-3.383 18.456-8.69 4.392 5.308 11.029 8.69 18.456 8.69 8.661 0 16.247-4.599 20.451-11.488 4.205 6.889 11.791 11.488 20.451 11.488 11.531 0 21.156-8.153 23.431-19.008 4.382 5.604 11.201 9.21 18.866 9.21 13.223 0 23.943-10.72 23.943-23.943l40.903-114.714h-234.57c-22.941 0-41.539-18.597-41.539-41.539z" fill="#dd636e"/><path d="m190.972 396.85h-.03c-10.99 0-20.26-7.42-23.06-17.52-2.2 2.6-4.94 4.73-8.04 6.2-3.11 1.47-6.59 2.3-10.26 2.3-13.22 0-23.94-10.72-23.94-23.94v-6.54c-2.42.82-5.01 1.27-7.7 1.27-13.23 0-23.94-10.72-23.94-23.94v-170.26h47.88v52.24c0 21.74 16.71 39.58 37.98 41.38v118.59c0 8.51 4.43 15.98 11.11 20.22z" fill="#da4a54"/><path d="m409.989 128.825h-314.064c-12.081 0-21.875 9.794-21.875 21.875v17.438c0 12.081 9.794 21.875 21.875 21.875h314.064c12.081 0 21.875-9.794 21.875-21.875v-17.438c0-12.081-9.794-21.875-21.875-21.875z" fill="#d6d6d6"/><path d="m176.71 190.01h-80.78c-12.08 0-21.88-9.79-21.88-21.87v-17.44c0-12.08 9.8-21.88 21.88-21.88h80.78c-12.08 0-21.88 9.8-21.88 21.88v17.44c0 12.08 9.8 21.87 21.88 21.87z" fill="#c2c2c2"/><path d="m394.054 381.369c-13.223 0-23.943-10.72-23.943-23.943v-99.231h61.84l-13.954 99.231c0 13.224-10.719 23.943-23.943 23.943z" fill="#dd636e"/><path d="m332.28 257.523c-13.224 13.223-34.663 13.223-47.886 0l-5.873-5.873 23.943-23.943c8.233-8.233 21.583-8.233 29.816 0 8.234 8.234 8.234 21.583 0 29.816z" fill="#edbb9c"/><path d="m239.988 311.638c-16.018 0-30.26-10.176-35.441-25.322-1.121-3.277.627-6.841 3.904-7.962s6.841.627 7.962 3.904c3.445 10.072 12.919 16.839 23.575 16.839 10.652 0 20.124-6.767 23.569-16.839 1.121-3.277 4.688-5.023 7.962-3.904 3.277 1.121 5.024 4.685 3.904 7.962-5.181 15.146-19.421 25.322-35.435 25.322z" fill="#da4a54"/><path d="m166.653 109.555c-36.332 0-65.891-29.558-65.891-65.891 0-12.21 3.347-23.923 9.443-34.03 7.551-12.518 25.559-12.915 33.604-.709 4.231 6.419 4.655 14.767.678 21.346-2.405 3.978-3.725 8.588-3.725 13.392 0 14.276 11.614 25.891 25.891 25.891z" fill="#f9f6f9"/><path d="m166.663 106.314v3.24c-36.34 0-65.9-29.56-65.9-65.89 0-12.21 3.35-23.93 9.45-34.03 5.93-9.84 18.32-12.19 27.25-6.83-2.68 1.59-5.05 3.87-6.84 6.83-6.1 10.1-9.44 21.82-9.44 34.03 0 29.21 19.109 54.04 45.48 62.65z" fill="#dddaec"/></g></g></svg>